<?xml version="1.0" encoding="utf-8"?>
<!-- Generator: Adobe Illustrator 24.0.1, SVG Export Plug-In . SVG Version: 6.00 Build 0)  -->
<svg version="1.1" id="图层_1" xmlns="http://www.w3.org/2000/svg" xmlns:xlink="http://www.w3.org/1999/xlink" x="0px" y="0px"
	 viewBox="0 0 50 50" style="enable-background:new 0 0 50 50;" xml:space="preserve">
<style type="text/css">
	.st0{fill:#D3DFFF;}
	.st1{fill:#2B4ABD;}
	.st2{fill:#42C6EC;}
</style>
<g>
	<path class="st0" d="M25,1.5C12,1.5,1.5,12,1.5,25C1.5,38,12,48.5,25,48.5S48.5,38,48.5,25C48.5,12,38,1.5,25,1.5z M25,37.7
		c-7,0-12.7-5.7-12.7-12.7S18,12.3,25,12.3S37.7,18,37.7,25S32,37.7,25,37.7z"/>
	<path class="st1" d="M25,1.5v10.8c7,0,12.7,5.7,12.7,12.7c0,2.5-0.7,4.8-2,6.8l8.9,5.6l0.3,0.2c2.3-3.6,3.7-8,3.7-12.6
		C48.5,12,38,1.5,25,1.5z"/>
	<path class="st2" d="M35.7,31.8c-2.3,3.5-6.2,5.9-10.7,5.9c-4.5,0-8.5-2.4-10.8-6l-9.1,5.7c4.2,6.6,11.5,11,19.9,11
		c8.3,0,15.7-4.4,19.8-10.9L35.7,31.8z"/>
</g>
</svg>
