<?xml version="1.0" encoding="utf-8"?>
<!-- Generator: Adobe Illustrator 24.0.1, SVG Export Plug-In . SVG Version: 6.00 Build 0)  -->
<svg version="1.1" id="图层_1" xmlns="http://www.w3.org/2000/svg" xmlns:xlink="http://www.w3.org/1999/xlink" x="0px"
  y="0px" viewBox="0 0 50 50" style="enable-background:new 0 0 50 50;" xml:space="preserve">
  <style type="text/css">
    .st0 {
      fill: #2B4ABD;
    }

    .st1 {
      fill: #D3DFFF;
    }

    .st2 {
      fill: #42C6EC;
    }
  </style>
  <g>
    <polygon class="st0" points="0.8,18.9 0.8,18.5 1.3,17.9 0.1,16.6 0,15.3 1,15.3 0.3,14.6 0.5,14.3 1.1,13.7 3.2,13.6 3.6,14.2
		6.6,14.1 7.5,14.9 9.4,14.9 10,14.4 12.1,14.3 12.1,15.4 10.3,17.2 11.8,18.7 11.8,19.3 12.2,19.6 12.7,19.5 12.7,16.6 13.3,16.6
		13.8,17.1 13.9,17.8 14.6,17.7 15.7,18.8 15.7,19.8 14.4,19.8 14.4,20.4 12.9,22 12.9,22.5 12,23.5 12.4,23.9 12.1,24 11.5,23.4
		10.5,23.4 9.8,24.1 9.9,25.1 11.1,25.1 12.9,26.8 13.4,26.3 14.7,26.3 15.5,27.1 16,27.1 17.2,28.1 18.1,28.2 18.6,28.6 18.6,29.2
		18.1,29.7 18.2,30.7 14.4,34.3 14.4,35.4 13.9,35.9 14,36.5 14.3,37 14.3,37.2 14,37.2 13.1,36.3 13.1,33.2 13.7,32.8 13.7,30.5
		12.1,29 12.2,27.6 12.5,27.3 11,25.8 9.5,25.9 8.7,25.1 8.7,24.3 8.1,24.4 6.1,22.5 6.1,20.3 5.6,19.8 5.7,19 3.9,17.3 2.3,17.2
		" />
    <polygon class="st1" points="23.5,19.5 23.5,18.9 23.1,18.5 23.1,17.8 22.2,18.8 22.2,19.4 22.7,19.4 22.7,18.6 23,18.9 23,19.5
		" />
    <polygon class="st1" points="29.9,31.7 30.2,31.4 30.2,30.8 30.4,30.6 30.5,29.6 29.6,30.4 29.6,31.4 	" />
    <polygon class="st1" points="36.8,27.2 37.2,27.2 37.8,27.9 38,27.9 38.4,28.2 38.4,28.7 38.6,28.7 38.9,29 39.5,28.9 39.6,29.1
		38.4,29.1 37.5,28.2 37.5,28 	" />
    <polygon class="st1" points="38.8,27.6 38.8,28.1 39.1,28.4 39.5,28.4 40,27.9 40,27.1 39.9,26.9 39.2,27.6 	" />
    <polygon class="st1" points="40,29 40,29.2 40.2,29.2 40.3,29.3 40.4,29.2 40.4,29.2 40.7,29.1 40.7,29 	" />
    <polygon class="st1" points="40.6,28.5 40.4,28.5 40.2,28.4 40.2,28.1 40.4,27.9 40.5,27.8 40.9,27.8 40.8,27.9 40.5,27.9
		40.5,28.2 40.6,28.3 	" />
    <polygon class="st1" points="41.2,28.3 41.7,28.3 41.7,28.4 41.3,28.5 	" />
    <polygon class="st1" points="41.9,28 41.9,28.2 42.2,28.5 42.5,28.5 43.2,29.2 43.5,29.2 43.8,29 44.1,29.4 44.6,29.4 44,28.8
		44,28.7 43.6,28.2 42.7,28.2 42.6,28.3 42.3,28.3 42.3,28 	" />
    <polygon class="st1" points="39.5,30.8 39.5,33.2 40.6,33.2 41.1,32.7 42.4,32.6 43.4,33.8 44.1,33.7 44.9,33 44.9,31.3 43.1,29.5
		43.2,30.4 42.6,29.8 41.1,29.8 40.1,30.9 	" />
    <polygon class="st1" points="43.8,34.2 43.8,34.6 44,34.6 44.2,34.4 44.2,34.2 	" />
    <polygon class="st1" points="47.9,34.2 47.7,34.2 46.8,35.1 46.7,35.2 47.2,35.2 48.6,33.9 48.5,33.5 48.3,33.5 47.7,32.9
		47.6,33.2 47.9,33.5 	" />
    <polygon class="st1" points="40.6,24.2 40.4,24.5 40.4,24.7 40.6,24.7 40.6,24.5 40.7,24.4 	" />
    <polygon class="st1" points="40.4,25.3 40.4,26.2 40.6,26 40.7,26 41,26.3 41.2,26.3 40.7,25.8 40.7,25.3 	" />
    <polygon class="st1" points="40.7,26.3 40.5,26.5 40.7,26.6 40.7,26.7 40.6,26.8 40.7,26.8 41,27.1 41.1,27 41.1,26.6 41,26.8
		40.8,26.7 40.8,26.5 	" />
    <polygon class="st1" points="11.8,24.6 11.8,24.8 12.3,24.7 12.6,25.1 13,25.1 13.1,24.9 12.7,24.9 12.4,24.6 	" />
    <polygon class="st1" points="13.2,25.3 13.4,25.1 13.7,25.1 13.8,25.2 	" />
    <polygon class="st2" points="48.7,14.1 45.8,14.1 45.3,13.6 44.8,13.5 44,12.8 33.7,12.8 31.9,14.7 30.5,14.6 29.9,15.3 29.5,15.3
		28.3,14.1 26.4,14.1 25.3,15.2 25.3,16 24.5,16.7 24.4,17.6 25.2,18.3 26,17.5 26,16.3 26.7,15.6 26.7,18.1 25.8,19 24.5,18.9
		23.3,20.1 23.3,21.2 22.2,21.2 22.2,22.3 23.1,22.3 24.2,21.2 25,21.2 25.7,21.8 26.1,21.8 25.3,21 25.6,20.7 26.8,21.8 27.5,21.2
		27.5,20.5 28.7,20.5 29.3,21.2 29.3,21.6 28.2,21.5 27.3,22.5 28.5,22.5 28.5,23.3 28.5,23.7 29.1,24.2 29.1,24.9 29.8,25.7
		31.1,25.6 31.7,25 31.7,24.5 31,24.5 30.2,23.7 30.4,23.4 31.2,24 32.7,24 33.8,25.2 33.7,25.9 34.8,26.9 34.8,25.7 35.8,24.7
		36.3,24.7 37.3,25.7 37.2,26.9 37.9,27.5 38.3,27.5 37.6,26.8 37.6,26.1 38.2,26.7 38.8,26.1 38.8,25.7 38.3,25.2 38.7,24.8
		39.5,24.8 40.5,23.7 40.5,23.1 40.1,22.7 40.1,22 40.4,21.7 41.4,22.6 41.6,22.4 41.6,21.5 43.3,19.8 43.4,20.9 43.2,21.1
		43.2,21.9 42.6,22.6 42.1,22.5 41.7,23 41.6,23.5 42.4,22.9 42.9,22.9 43.5,22.3 43.5,21.5 43.7,21.3 43.7,19.7 42.5,18.5
		43.5,17.5 45,17.6 45.8,16.8 46.6,16.7 45.3,18.1 45.3,19.4 45.6,19.4 46.3,18.8 46.3,17.7 46.8,17.1 47.5,17.1 48.4,16.3
		48.4,15.7 49.6,15.7 50,15.4 	" />
    <polygon class="st1" points="30.6,26.2 29.5,26.3 28.6,25.3 28.6,24.4 28.1,24 28.4,23.7 28.5,23.7 28.5,23.3 25.4,23.3 24.6,22.4
		23.6,22.4 23.4,22.7 22.7,22.7 21.1,24.3 21.1,26.1 22.2,27.2 24.4,27.2 24.9,27.7 25,28.3 25.4,28.7 25.4,31.4 25.9,31.9
		25.9,33.1 27.1,33.1 28.5,31.7 28.5,30.5 29.1,29.9 29.1,28.3 30.7,26.8 	" />
  </g>
</svg>
