<?xml version="1.0" encoding="utf-8"?>
<!-- Generator: Adobe Illustrator 24.0.1, SVG Export Plug-In . SVG Version: 6.00 Build 0)  -->
<svg version="1.1" id="图层_1" xmlns="http://www.w3.org/2000/svg"
  xmlns:xlink="http://www.w3.org/1999/xlink" x="0px" y="0px"
  viewBox="0 0 50 50" style="enable-background:new 0 0 50 50;" xml:space="preserve">
<style type="text/css">
	.st0{fill:#C5D4FF;}
	.st1{fill:#42C6EC;}
	.st2{fill:#2B4ABD;}
	.st3{fill:#D3DFFF;}
	.st4{fill:#C1EAF4;}
	.st5{fill:#C5CFFF;}
	.st6{fill:#6B79FE;}
	.st7{fill:#FFFFFF;}
</style>
<g>
	<path class="st3" d="M40,43.3c-0.6,0-1.3-0.2-1.8-0.6c-1.3-1-1.5-2.9-0.5-4.2c2.2-2.8,3.3-6.2,3.3-9.8c0-8.8-7.2-16-16-16
		s-16,7.2-16,16c0,3.5,1.1,6.9,3.2,9.7c1,1.3,0.7,3.2-0.6,4.2c-1.3,1-3.2,0.7-4.2-0.6C4.5,38.1,3,33.5,3,28.7c0-12.1,9.9-22,22-22
		s22,9.9,22,22c0,4.9-1.6,9.6-4.6,13.5C41.8,42.9,40.9,43.3,40,43.3z"/>
	<path class="st2" d="M9.9,43.2c-0.9,0-1.8-0.4-2.4-1.2C4.5,38.1,3,33.5,3,28.7c0-12.1,9.9-22,22-22c4.8,0,9.4,1.5,13.2,4.4
		c1.3,1,1.6,2.9,0.6,4.2c-1,1.3-2.9,1.6-4.2,0.6c-2.8-2.1-6.1-3.2-9.6-3.2c-8.8,0-16,7.2-16,16c0,3.5,1.1,6.9,3.2,9.7
		c1,1.3,0.7,3.2-0.6,4.2C11.1,43,10.5,43.2,9.9,43.2z"/>
	<g>
		<path class="st1" d="M17.4,26.3v-0.7h3.7v0.5c-0.4,0.4-0.7,0.9-1.1,1.5c-0.4,0.6-0.6,1.3-0.8,2c-0.1,0.5-0.2,1-0.3,1.6h-0.7
			c0-0.5,0.1-1,0.3-1.6c0.2-0.6,0.4-1.3,0.7-1.8s0.7-1.1,1-1.5H17.4z"/>
		<path class="st1" d="M21.8,29.8l0.7-0.1c0.1,0.4,0.2,0.6,0.4,0.8s0.4,0.3,0.7,0.3c0.3,0,0.6-0.1,0.9-0.4s0.4-0.6,0.4-1
			c0-0.4-0.1-0.7-0.3-0.9c-0.2-0.2-0.5-0.3-0.9-0.3c-0.2,0-0.4,0.1-0.6,0.2c-0.2,0.1-0.3,0.2-0.4,0.4l-0.7-0.1l0.6-2.9h2.8v0.7H23
			l-0.3,1.5c0.3-0.2,0.7-0.4,1.1-0.4c0.5,0,0.9,0.2,1.3,0.5s0.5,0.8,0.5,1.3c0,0.5-0.2,1-0.5,1.3c-0.4,0.5-0.9,0.7-1.5,0.7
			c-0.5,0-0.9-0.1-1.3-0.4C22,30.7,21.8,30.3,21.8,29.8z"/>
		<path class="st1" d="M26.4,26.9c0-0.4,0.1-0.8,0.3-1c0.2-0.3,0.5-0.4,0.9-0.4c0.4,0,0.7,0.1,0.9,0.4c0.2,0.3,0.4,0.6,0.4,1.1
			c0,0.5-0.1,0.9-0.4,1.1s-0.5,0.4-0.9,0.4c-0.3,0-0.6-0.1-0.9-0.4S26.4,27.5,26.4,26.9z M27.6,25.9c-0.2,0-0.3,0.1-0.4,0.2
			C27,26.3,27,26.6,27,27c0,0.4,0.1,0.6,0.2,0.8s0.3,0.2,0.4,0.2c0.2,0,0.3-0.1,0.4-0.2c0.1-0.2,0.2-0.4,0.2-0.8
			c0-0.4-0.1-0.6-0.2-0.8S27.8,25.9,27.6,25.9z M27.6,31.5l3.1-6h0.6l-3.1,6H27.6z M30.1,29.9c0-0.4,0.1-0.8,0.3-1
			c0.2-0.3,0.5-0.4,0.9-0.4c0.4,0,0.7,0.1,0.9,0.4c0.2,0.3,0.4,0.6,0.4,1.1c0,0.5-0.1,0.9-0.4,1.1s-0.5,0.4-0.9,0.4
			c-0.3,0-0.6-0.1-0.9-0.4S30.1,30.5,30.1,29.9z M31.3,28.9c-0.2,0-0.3,0.1-0.4,0.2c-0.1,0.2-0.2,0.4-0.2,0.8c0,0.4,0.1,0.6,0.2,0.8
			s0.3,0.2,0.4,0.2c0.2,0,0.3-0.1,0.4-0.2c0.1-0.2,0.2-0.4,0.2-0.8c0-0.4-0.1-0.6-0.2-0.8S31.5,28.9,31.3,28.9z"/>
	</g>
</g>
</svg>
