<?xml version="1.0" encoding="utf-8"?>
<!-- Generator: Adobe Illustrator 24.0.1, SVG Export Plug-In . SVG Version: 6.00 Build 0)  -->
<svg version="1.1" id="图层_1" xmlns="http://www.w3.org/2000/svg" xmlns:xlink="http://www.w3.org/1999/xlink" x="0px" y="0px"
	 viewBox="0 0 50 50" style="enable-background:new 0 0 50 50;" xml:space="preserve">
<style type="text/css">
	.st0{fill:#C5D4FF;}
	.st1{fill:#42C6EC;}
	.st2{fill:#2B4ABD;}
	.st3{fill:#D3DFFF;}
	.st4{fill:#C1EAF4;}
	.st5{fill:#C5CFFF;}
	.st6{fill:#6B79FE;}
	.st7{fill:#FFFFFF;}
</style>
<g>
	<path class="st0" d="M49.5,44.3h-49c-0.3,0-0.5-0.2-0.5-0.5s0.2-0.5,0.5-0.5h49c0.3,0,0.5,0.2,0.5,0.5S49.8,44.3,49.5,44.3z"/>
	<path class="st1" d="M34.7,31.5L24.6,15.8l-9.8,8.5L3.9,27c-0.5,0.1-1.1-0.2-1.2-0.7c-0.1-0.5,0.2-1.1,0.7-1.2l10.4-2.6L25,12.7
		l10.7,16.7l10.5-1.3c0.6-0.1,1,0.3,1.1,0.9c0.1,0.5-0.3,1-0.9,1.1L34.7,31.5z"/>
	<path class="st2" d="M15,33.8L3.1,31.5c-0.5-0.1-0.9-0.6-0.8-1.2c0.1-0.5,0.6-0.9,1.2-0.8l10.8,2.1l10.4-9.8l10.8,1.5l10.3-11.8
		c0.4-0.4,1-0.5,1.4-0.1c0.4,0.4,0.5,1,0.1,1.4l-11,12.6l-11-1.6L15,33.8z"/>
</g>
</svg>
