<?xml version="1.0" encoding="utf-8"?>
<!-- Generator: Adobe Illustrator 24.0.1, SVG Export Plug-In . SVG Version: 6.00 Build 0)  -->
<svg version="1.1" id="图层_1" xmlns="http://www.w3.org/2000/svg"
  xmlns:xlink="http://www.w3.org/1999/xlink" x="0px" y="0px"
  viewBox="0 0 50 50" style="enable-background:new 0 0 50 50;" xml:space="preserve">
<style type="text/css">
	.st0{fill:#C5D4FF;}
	.st1{fill:#42C6EC;}
	.st2{fill:#2B4ABD;}
	.st3{fill:#D3DFFF;}
	.st4{fill:#C1EAF4;}
	.st5{fill:#C5CFFF;}
	.st6{fill:#6B79FE;}
	.st7{fill:#FFFFFF;}
</style>
<g>
	<polygon class="st3" points="17.5,41.1 6,35.6 6,13.3 17.5,18.8 	"/>
	<polygon class="st2" points="30.8,39.1 19.3,41.1 19.3,18.8 30.8,16.8 	"/>
	<polygon class="st3" points="44,41.1 32.5,39.1 32.5,16.8 44,18.8 	"/>
	<g>
		<path class="st1" d="M31.7,8.9c-3,0-5.4,2.4-5.4,5.5c0,1.5,0.6,2.9,1.6,3.9l3.8,3.9l3.8-3.9c1-1,1.6-2.4,1.6-3.9
			C37.1,11.4,34.7,8.9,31.7,8.9L31.7,8.9z M31.7,16.8c-0.6,0-1.3-0.3-1.7-0.7c-0.5-0.5-0.7-1.1-0.7-1.7c0-0.6,0.3-1.3,0.7-1.7
			c0.4-0.5,1.1-0.7,1.7-0.7c0.6,0,1.3,0.3,1.7,0.7c0.5,0.5,0.7,1.1,0.7,1.7c0,0.6-0.3,1.3-0.7,1.7C33,16.6,32.3,16.8,31.7,16.8
			L31.7,16.8z M31.7,16.8"/>
	</g>
</g>
</svg>
