<?xml version="1.0" encoding="utf-8"?>
<!-- Generator: Adobe Illustrator 24.0.1, SVG Export Plug-In . SVG Version: 6.00 Build 0)  -->
<svg version="1.1" id="图层_1" xmlns="http://www.w3.org/2000/svg" xmlns:xlink="http://www.w3.org/1999/xlink" x="0px"
  y="0px" viewBox="0 0 50 50" style="enable-background:new 0 0 50 50;" xml:space="preserve">
  <style type="text/css">
    .st0 {
      fill: #C5D4FF;
    }

    .st1 {
      fill: #42C6EC;
    }

    .st2 {
      fill: #2B4ABD;
    }

    .st3 {
      fill: #D3DFFF;
    }

    .st4 {
      fill: #C1EAF4;
    }

    .st5 {
      fill: #C5CFFF;
    }

    .st6 {
      fill: #6B79FE;
    }

    .st7 {
      fill: #FFFFFF;
    }
  </style>
  <g>
    <g>
      <path class="st2" d="M4.6,37.8V12.2h5l10.4,17v-17h4.8v25.5h-5.2L9.4,21.1v16.6H4.6z" />
    </g>
    <g>
      <path class="st1"
        d="M27.7,22.4c0-2,0.3-3.6,0.8-5c0.4-1,1-1.9,1.7-2.6c0.7-0.8,1.5-1.4,2.3-1.7c1.1-0.5,2.4-0.8,3.9-0.8
			c2.6,0,4.7,0.9,6.3,2.6s2.4,4.2,2.4,7.4c0,3.1-0.8,5.6-2.4,7.3c-1.6,1.8-3.7,2.6-6.3,2.6c-2.7,0-4.8-0.9-6.3-2.6
			C28.5,27.8,27.7,25.4,27.7,22.4z M31.4,22.2c0,2.2,0.5,3.8,1.4,5c0.9,1.1,2.1,1.7,3.6,1.7c1.4,0,2.6-0.6,3.5-1.7
			c0.9-1.1,1.4-2.8,1.4-5c0-2.2-0.4-3.9-1.3-5c-0.9-1.1-2.1-1.6-3.6-1.6c-1.5,0-2.7,0.6-3.6,1.7C31.9,18.3,31.4,20,31.4,22.2z" />
    </g>
    <rect x="28.4" y="34.3" class="st3" width="17" height="3.5" />
  </g>
</svg>
