<?xml version="1.0" encoding="utf-8"?>
<!-- Generator: Adobe Illustrator 24.0.1, SVG Export Plug-In . SVG Version: 6.00 Build 0)  -->
<svg version="1.1" id="图层_1" xmlns="http://www.w3.org/2000/svg" xmlns:xlink="http://www.w3.org/1999/xlink" x="0px" y="0px"
	 viewBox="0 0 77 77" style="enable-background:new 0 0 77 77;" xml:space="preserve">
<style type="text/css">
	.st0{fill:#D1DBEF;}
	.st1{fill:#C3CFEA;}
	.st2{opacity:0.9;fill:#48BBDE;}
	.st3{opacity:0.9;fill:#2D4B9E;}
</style>
<g>
	<g>
		<path class="st0" d="M38.5,77C17.3,77,0,59.7,0,38.5S17.3,0,38.5,0C59.7,0,77,17.3,77,38.5S59.7,77,38.5,77z M38.5,1.8
			C18.3,1.8,1.8,18.3,1.8,38.5c0,20.2,16.5,36.7,36.7,36.7s36.7-16.5,36.7-36.7C75.2,18.3,58.7,1.8,38.5,1.8z"/>
		<path class="st1" d="M38.5,68.5c-16.6,0-30-13.5-30-30s13.5-30,30-30s30.1,13.5,30.1,30S55.1,68.5,38.5,68.5z M38.5,9.3
			C22.4,9.3,9.3,22.4,9.3,38.5s13.1,29.1,29.1,29.1s29.2-13.1,29.2-29.1S54.6,9.3,38.5,9.3z"/>
		<path class="st1" d="M38.5,61.3c-12.6,0-22.8-10.3-22.8-22.8s10.3-22.8,22.8-22.8s22.9,10.3,22.9,22.8S51.1,61.3,38.5,61.3z
			 M38.5,16.5c-12.1,0-21.9,9.8-21.9,21.9s9.8,21.9,21.9,21.9c12.1,0,22-9.8,22-21.9S50.6,16.5,38.5,16.5z"/>
		<path class="st1" d="M38.5,55c-9.1,0-16.4-7.4-16.4-16.5c0-9.1,7.4-16.4,16.4-16.4c9.1,0,16.5,7.4,16.5,16.4
			C54.9,47.6,47.6,55,38.5,55z M38.5,22.9c-8.6,0-15.5,7-15.5,15.5c0,8.6,7,15.6,15.5,15.6S54,47.1,54,38.5
			C54,29.9,47.1,22.9,38.5,22.9z"/>
		<path class="st1" d="M38.5,47.8c-5.1,0-9.2-4.1-9.2-9.3c0-5.1,4.1-9.2,9.2-9.2s9.3,4.1,9.3,9.2C47.7,43.6,43.6,47.8,38.5,47.8z
			 M38.5,30.1c-4.6,0-8.3,3.7-8.3,8.3c0,4.6,3.7,8.4,8.3,8.4s8.4-3.7,8.4-8.4C46.8,33.9,43.1,30.1,38.5,30.1z"/>
		<rect x="38" y="0.9" class="st1" width="0.9" height="37.6"/>
		
			<rect x="20.9" y="13.5" transform="matrix(0.309 -0.9511 0.9511 0.309 -15.9647 42.6295)" class="st1" width="0.9" height="37.6"/>
		
			<rect x="9.2" y="52.1" transform="matrix(0.5881 -0.8088 0.8088 0.5881 -30.9126 44.3085)" class="st1" width="37.6" height="0.9"/>
		
			<rect x="48.9" y="33.6" transform="matrix(0.809 -0.5878 0.5878 0.809 -21.3712 38.9928)" class="st1" width="0.9" height="37.6"/>
		<rect x="37" y="31.7" transform="matrix(0.9512 -0.3086 0.3086 0.9512 -7.187 18.7821)" class="st1" width="37.6" height="0.9"/>
	</g>
	<polygon class="st2" points="8.2,28.2 24,55.8 58.2,65 53.8,31.8 39.1,7.3 	"/>
	<polygon class="st3" points="38.2,10.8 13.8,29.4 29,49.8 50.2,53.8 67,28.6 	"/>
</g>
</svg>
