<?xml version="1.0" encoding="utf-8"?>
<!-- Generator: Adobe Illustrator 24.0.1, SVG Export Plug-In . SVG Version: 6.00 Build 0)  -->
<svg version="1.1" id="图层_1" xmlns="http://www.w3.org/2000/svg"
  xmlns:xlink="http://www.w3.org/1999/xlink" x="0px" y="0px"
  viewBox="0 0 50 50" style="enable-background:new 0 0 50 50;" xml:space="preserve">
<style type="text/css">
	.st0{fill:#C5D4FF;}
	.st1{fill:#42C6EC;}
	.st2{fill:#2B4ABD;}
	.st3{fill:#D3DFFF;}
	.st4{fill:#C1EAF4;}
	.st5{fill:#C5CFFF;}
	.st6{fill:#6B79FE;}
	.st7{fill:#FFFFFF;}
</style>
<g>
	<rect x="3" y="8.7" class="st6" width="7.9" height="15.8"/>
	<rect x="3" y="25.5" class="st2" width="7.9" height="15.8"/>
	<rect x="39.1" y="8.7" class="st2" width="7.9" height="22.6"/>
	<rect x="39.1" y="32.1" class="st6" width="7.9" height="9.2"/>
	<rect x="12.2" y="8.9" class="st3" width="25.5" height="11.1"/>
	<rect x="12.2" y="39.4" class="st3" width="25.5" height="1.8"/>
	<path class="st3" d="M37.7,20.1v9.7c0,0-6.5-1.9-11.5,2.6c-3.5,3.1-8.9,6.5-14,7v-9.7c0,0,7.3,0.6,10.5-4.1
		C26.1,20.4,37.7,20.1,37.7,20.1z"/>
	<g>
		<path class="st1" d="M24.3,31.8c3.7,4.8,10.4,7.7,13.4,7.7v-4.6c-1.6-0.5-8.8-2.8-12.1-7.1c-3.7-4.8-10.4-7.7-13.4-7.7v4.6
			C13.8,25.2,21,27.5,24.3,31.8z"/>
	</g>
</g>
</svg>
