<?xml version="1.0" encoding="utf-8"?>
<!-- Generator: Adobe Illustrator 24.0.1, SVG Export Plug-In . SVG Version: 6.00 Build 0)  -->
<svg version="1.1" id="图层_1" xmlns="http://www.w3.org/2000/svg"
  xmlns:xlink="http://www.w3.org/1999/xlink" x="0px" y="0px"
  viewBox="0 0 50 50" style="enable-background:new 0 0 50 50;" xml:space="preserve">
<style type="text/css">
	.st0{fill:#C5D4FF;}
	.st1{fill:#42C6EC;}
	.st2{fill:#2B4ABD;}
	.st3{fill:#D3DFFF;}
	.st4{fill:#C1EAF4;}
	.st5{fill:#C5CFFF;}
	.st6{fill:#6B79FE;}
	.st7{fill:#FFFFFF;}
</style>
<g>
	<polygon class="st2" points="13.5,16.4 11,16.4 11,9.5 8.5,9.5 8.5,16.4 6,16.4 6,30.3 8.5,30.3 8.5,37.2 11,37.2 11,30.3
		13.5,30.3 	"/>
	<polygon class="st2" points="33.8,16.1 31.3,16.1 31.3,9.5 28.8,9.5 28.8,16.1 26.4,16.1 26.4,33.9 28.8,33.9 28.8,40.5 31.3,40.5
		31.3,33.9 33.8,33.9 	"/>
	<polygon class="st1" points="23.6,19.6 21.2,19.6 21.2,14.1 18.7,14.1 18.7,19.6 16.2,19.6 16.2,30.4 18.7,30.4 18.7,35.9
		21.2,35.9 21.2,30.4 23.6,30.4 	"/>
	<polygon class="st1" points="44,18 41.5,18 41.5,15 39,15 39,18 36.5,18 36.5,27.9 39,27.9 39,35 41.5,35 41.5,27.9 44,27.9 	"/>
</g>
</svg>
