<?xml version="1.0" encoding="utf-8"?>
<!-- Generator: Adobe Illustrator 24.0.1, SVG Export Plug-In . SVG Version: 6.00 Build 0)  -->
<svg version="1.1" id="图层_1" xmlns="http://www.w3.org/2000/svg"
  xmlns:xlink="http://www.w3.org/1999/xlink" x="0px" y="0px"
  viewBox="0 0 50 50" style="enable-background:new 0 0 50 50;" xml:space="preserve">
<style type="text/css">
	.st0{fill:#C5D4FF;}
	.st1{fill:#42C6EC;}
	.st2{fill:#2B4ABD;}
	.st3{fill:#D3DFFF;}
	.st4{fill:#C1EAF4;}
	.st5{fill:#C5CFFF;}
	.st6{fill:#6B79FE;}
	.st7{fill:#FFFFFF;}
</style>
<g>
	<path class="st0" d="M29.1,28.2L12.3,21c-0.3-0.1-0.4-0.4-0.3-0.7c0.1-0.3,0.4-0.4,0.7-0.3L28.9,27l10.6-9.6c0.2-0.2,0.5-0.2,0.7,0
		c0.2,0.2,0.2,0.5,0,0.7L29.1,28.2z"/>
	<path class="st0" d="M30.8,41.7c-0.2,0-0.5-0.2-0.5-0.4l-1.9-14.3L44.8,32c0.3,0.1,0.4,0.4,0.3,0.6C45,32.9,44.8,33,44.5,33
		l-14.9-4.7l1.7,12.8C31.3,41.4,31.2,41.6,30.8,41.7C30.9,41.7,30.8,41.7,30.8,41.7z"/>
	<path class="st0" d="M6.3,32.6c-0.1,0-0.2,0-0.3-0.1c-0.2-0.2-0.2-0.5-0.1-0.7l8-9.6L8.9,11c-0.1-0.3,0-0.5,0.3-0.7
		c0.3-0.1,0.5,0,0.7,0.3L15,22.3l-8.4,10C6.6,32.5,6.4,32.6,6.3,32.6z"/>
	<ellipse class="st2" cx="29" cy="27.6" rx="6.9" ry="6.7"/>
	<ellipse class="st1" cx="14.4" cy="21.8" rx="4.6" ry="4.5"/>
	<ellipse class="st1" cx="9.4" cy="10.8" rx="3" ry="2.9"/>
	<ellipse class="st1" cx="5.8" cy="32.3" rx="3" ry="2.9"/>
	<ellipse class="st1" cx="30.8" cy="39.7" rx="2.5" ry="2.4"/>
	<ellipse class="st1" cx="44.7" cy="32.5" rx="2.5" ry="2.4"/>
	<ellipse class="st1" cx="39.8" cy="17.7" rx="2.5" ry="2.4"/>
</g>
</svg>
