<?xml version="1.0" encoding="utf-8"?>
<!-- Generator: Adobe Illustrator 24.0.1, SVG Export Plug-In . SVG Version: 6.00 Build 0)  -->
<svg version="1.1" id="图层_1" xmlns="http://www.w3.org/2000/svg"
  xmlns:xlink="http://www.w3.org/1999/xlink" x="0px" y="0px"
  viewBox="0 0 50 50" style="enable-background:new 0 0 50 50;" xml:space="preserve">
<style type="text/css">
	.st0{fill:#42C6EC;}
	.st1{fill:#6B79FE;}
	.st2{fill:#D3DFFF;}
	.st3{fill:#2B4ABD;}
</style>
<g>
	<g>
		<path class="st0" d="M14.1,33.3c0.1,0.3,0.3,0.6,0.5,0.8c0,0.1,0.1,0.2,0.1,0.2c0.2,0.3,0.3,0.5,0.5,0.7c0.1,0.1,0.1,0.2,0.2,0.3
			c0.2,0.2,0.4,0.5,0.6,0.7c2.3,2.5,5.6,4.1,9.2,4.1c2.7,0,5.2-0.9,7.2-2.3L30,34.2c-1.3,0.9-3,1.5-4.7,1.5c-3.4,0-6.3-2.1-7.5-5.1
			l-4,1.6c0.1,0.3,0.2,0.5,0.3,0.8C14.1,33.2,14.1,33.2,14.1,33.3z"/>
		<path class="st0" d="M35.9,42.6l-3.1-4.4c-2.1,1.5-4.7,2.4-7.5,2.4c-3.6,0-6.9-1.5-9.3-3.9l-3.8,3.8c3.3,3.4,8,5.5,13.1,5.5
			C29.2,46,32.9,44.8,35.9,42.6z"/>
		<path class="st0" d="M15.6,36.4c-1-1.1-1.8-2.4-2.4-3.8l-5,2c0.8,2.1,2,4,3.6,5.6L15.6,36.4z"/>
	</g>
	<path class="st1" d="M6,14.4l3.6,2.5c0.7-1,1.5-2,2.4-2.9l-3-3.2C7.9,11.9,6.9,13.1,6,14.4z"/>
	<g>
		<path class="st2" d="M12.3,29.2c0-0.2,0-0.3-0.1-0.5c0,0,0,0,0-0.1l-5.3,0.4c0.1,1.7,0.5,3.4,1.1,5l4.9-2l0,0l0.1,0
			c-0.2-0.6-0.4-1.2-0.5-1.8c0-0.1-0.1-0.3-0.1-0.4C12.4,29.6,12.3,29.4,12.3,29.2z"/>
		<path class="st2" d="M12.2,28.1c0-0.2,0-0.3,0-0.5c0-0.3,0-0.6,0-1c0-0.1,0-0.2,0-0.3c0-0.2,0-0.4,0.1-0.6c0-0.1,0-0.2,0.1-0.4
			c0-0.2,0.1-0.4,0.1-0.5c0-0.1,0.1-0.3,0.1-0.4c0-0.2,0.1-0.3,0.1-0.5c0-0.1,0.1-0.3,0.1-0.4c0.1-0.2,0.1-0.3,0.2-0.5
			c0-0.1,0.1-0.3,0.2-0.4c0.1-0.2,0.1-0.3,0.2-0.5c0.1-0.1,0.1-0.3,0.2-0.4c0.1-0.1,0.1-0.3,0.2-0.4c0.1-0.1,0.1-0.2,0.2-0.4
			c0.1-0.1,0.1-0.2,0.2-0.3l-4.4-3.1c-1.9,2.9-3,6.3-3,10c0,0.3,0,0.6,0,0.9L12.2,28.1z"/>
	</g>
	<path class="st2" d="M6.4,29.1l-4.6,0.4c0.2,2.4,0.7,4.6,1.6,6.8l4.3-1.8C7,32.8,6.5,31,6.4,29.1z"/>
	<g>
		<path class="st1" d="M18.6,22.9c0.1-0.2,0.3-0.4,0.4-0.5c0.1-0.1,0.2-0.3,0.4-0.4l-3-3.2c0,0,0,0,0,0c-0.2,0.2-0.5,0.5-0.7,0.7
			c0,0-0.1,0.1-0.1,0.1c-0.2,0.3-0.4,0.5-0.6,0.8L18.6,22.9L18.6,22.9z"/>
		<path class="st1" d="M23.8,15.2c-0.1,0-0.2,0-0.2,0c-0.3,0-0.7,0.1-1,0.2c0,0,0,0,0,0c-0.3,0.1-0.6,0.2-0.9,0.3
			c-0.1,0-0.1,0-0.2,0.1c-0.3,0.1-0.6,0.2-0.9,0.3c0,0,0,0,0,0c-0.3,0.1-0.6,0.3-0.9,0.4c0,0-0.1,0-0.1,0.1
			c-0.6,0.3-1.2,0.7-1.7,1.1c0,0-0.1,0.1-0.1,0.1c-0.3,0.2-0.5,0.4-0.8,0.7c0,0,0,0,0,0l3,3.2c0.2-0.2,0.4-0.3,0.6-0.5
			c0.1-0.1,0.1-0.1,0.2-0.1c0.2-0.1,0.3-0.2,0.5-0.3c0.1,0,0.1-0.1,0.2-0.1c0.2-0.1,0.5-0.2,0.7-0.3c0,0,0,0,0,0
			c0.2-0.1,0.5-0.2,0.8-0.3c0.1,0,0.2,0,0.2-0.1c0.2-0.1,0.4-0.1,0.6-0.1c0.1,0,0.2,0,0.2,0c0.3,0,0.6-0.1,0.8-0.1v-4.4
			C24.4,15.1,24.1,15.2,23.8,15.2z"/>
	</g>
	<g>
		<path class="st1" d="M16.5,18C16.5,18,16.5,18,16.5,18c0.3-0.2,0.5-0.5,0.8-0.7c0,0,0.1-0.1,0.1-0.1c0.6-0.4,1.1-0.8,1.8-1.1
			c0,0,0.1-0.1,0.1-0.1c0.3-0.2,0.6-0.3,0.9-0.4c0,0,0,0,0,0c0.3-0.1,0.6-0.2,1-0.4c0.1,0,0.1,0,0.2-0.1c0.3-0.1,0.6-0.2,1-0.3
			c0,0,0,0,0,0c0.3-0.1,0.7-0.1,1-0.2c0.1,0,0.2,0,0.2,0c0.3,0,0.7-0.1,1.1-0.1V9.2c-0.3,0-0.7,0-1,0.1c-0.1,0-0.2,0-0.3,0
			c-0.2,0-0.5,0.1-0.7,0.1c-0.1,0-0.2,0-0.3,0c-0.3,0-0.5,0.1-0.8,0.1c-0.1,0-0.1,0-0.2,0c-0.3,0.1-0.6,0.1-0.9,0.2
			c-0.1,0-0.2,0.1-0.4,0.1c-0.2,0.1-0.4,0.1-0.6,0.2c-0.1,0-0.3,0.1-0.4,0.1c-0.2,0.1-0.4,0.1-0.5,0.2c-0.1,0-0.3,0.1-0.4,0.1
			c-0.3,0.1-0.5,0.2-0.8,0.3c-0.2,0.1-0.3,0.1-0.5,0.2c-0.1,0.1-0.3,0.1-0.4,0.2c-0.2,0.1-0.3,0.2-0.5,0.3c-0.1,0.1-0.2,0.1-0.3,0.2
			c-0.6,0.3-1.1,0.7-1.7,1.1C14.2,12.9,14.1,13,14,13c-0.2,0.1-0.3,0.3-0.5,0.4c-0.1,0.1-0.1,0.1-0.2,0.2c-0.2,0.1-0.3,0.3-0.5,0.4
			L16.5,18z"/>
		<path class="st1" d="M11.9,14.9c0,0.1-0.1,0.1-0.1,0.2c-0.1,0.2-0.3,0.3-0.4,0.5c-0.1,0.1-0.2,0.2-0.3,0.3
			c-0.1,0.1-0.2,0.2-0.3,0.4c-0.2,0.2-0.4,0.5-0.6,0.8l4.4,3.1c0.2-0.3,0.4-0.6,0.6-0.8c0,0,0.1-0.1,0.1-0.1
			c0.2-0.3,0.5-0.5,0.7-0.8l-3.6-3.9c0,0,0,0,0,0C12.3,14.6,12.1,14.8,11.9,14.9z"/>
	</g>
	<g>
		<path class="st3" d="M30.3,34l2.5,3.5c0.6-0.5,1.1-0.9,1.6-1.5l-3.2-2.8C30.9,33.5,30.7,33.8,30.3,34z"/>
		<path class="st3" d="M37.1,31.5l-4-1.2c-0.3,1-0.9,1.8-1.5,2.6l3.2,2.8C35.8,34.4,36.6,33,37.1,31.5z"/>
		<path class="st3" d="M33.6,27.6c0,0.8-0.1,1.5-0.3,2.2l4,1.2c0.3-1.1,0.5-2.2,0.5-3.4c0-6.8-5.5-12.4-12.3-12.5v4.3
			C30,19.4,33.6,23.1,33.6,27.6z"/>
	</g>
	<g>
		<path class="st3" d="M25.5,8.7c9.1,0.1,16.7,6.7,18.3,15.4l4.4-0.8c-2-10.8-11.4-19-22.7-19.2V8.7z"/>
		<path class="st3" d="M25.5,9.2v5.3c1.2,0,2.4,0.2,3.5,0.6c0.2,0.1,0.4,0.1,0.6,0.2c0,0,0.1,0,0.1,0c4.3,1.5,7.5,5.2,8.4,9.8l5.3-1
			C41.7,15.7,34.3,9.3,25.5,9.2z"/>
	</g>
	<path class="st3" d="M43.4,33.1c-0.8,2.6-2.1,4.9-3.9,6.9l3.4,2.9c2.1-2.5,3.7-5.4,4.7-8.6L43.4,33.1z"/>
	<path class="st3" d="M25.5,9.2v5.3c6.2,0,11.4,4.4,12.7,10.3l-0.1,0.1l0,0.2c0,0,1.6,8.2-4.8,12.9l3.1,4.3
		c4.5-3.4,7.4-8.7,7.4-14.7C43.6,17.6,35.5,9.4,25.5,9.2z"/>
	<g>
		<path class="st2" d="M17.1,27.7C17.1,27.7,17.1,27.6,17.1,27.7c0-0.3,0-0.4,0-0.6c0-0.1,0-0.1,0-0.2c0-0.1,0-0.2,0-0.3
			c0-0.1,0-0.2,0-0.3c0-0.1,0-0.2,0.1-0.3c0-0.1,0-0.2,0.1-0.3c0-0.1,0-0.2,0.1-0.2c0-0.1,0.1-0.2,0.1-0.3c0-0.1,0-0.1,0.1-0.2
			c0-0.1,0.1-0.2,0.1-0.3c0-0.1,0.1-0.1,0.1-0.2c0-0.1,0.1-0.2,0.1-0.3c0-0.1,0.1-0.1,0.1-0.2c0-0.1,0.1-0.2,0.2-0.3
			c0,0,0-0.1,0.1-0.1L14.7,21c0,0,0,0,0,0.1c-0.1,0.2-0.3,0.4-0.4,0.7c0,0,0,0,0,0.1c-0.1,0.2-0.2,0.5-0.4,0.7c0,0,0,0,0,0.1
			c-0.1,0.2-0.2,0.5-0.3,0.7c0,0,0,0.1,0,0.1c-0.1,0.2-0.2,0.5-0.2,0.7c0,0.1,0,0.1,0,0.2c-0.1,0.2-0.1,0.4-0.2,0.7
			c0,0.1,0,0.2-0.1,0.3c0,0.2-0.1,0.4-0.1,0.6c0,0.2,0,0.3-0.1,0.5c0,0.1,0,0.3,0,0.4c0,0.3,0,0.6,0,0.9c0,0.1,0,0.3,0,0.4
			L17.1,27.7z"/>
		<path class="st2" d="M17.4,29.8c0-0.1,0-0.1,0-0.2c-0.1-0.2-0.1-0.4-0.1-0.6c0,0,0,0,0,0c0-0.2-0.1-0.5-0.1-0.8l-4.4,0.4
			c0,0,0,0,0,0c0,0.2,0,0.4,0.1,0.6c0,0.1,0,0.2,0,0.3c0,0.2,0.1,0.5,0.1,0.7c0,0,0,0.1,0,0.1c0.1,0.5,0.3,1,0.4,1.5l4-1.6l0.1,0.2
			l0.1,0.2l0,0c0,0,0,0,0,0c0-0.1-0.1-0.2-0.1-0.3C17.5,30.1,17.5,29.9,17.4,29.8z"/>
	</g>
</g>
</svg>
