<?xml version="1.0" encoding="utf-8"?>
<!-- Generator: Adobe Illustrator 24.0.1, SVG Export Plug-In . SVG Version: 6.00 Build 0)  -->
<svg version="1.1" id="图层_1" xmlns="http://www.w3.org/2000/svg" xmlns:xlink="http://www.w3.org/1999/xlink" x="0px"
  y="0px" viewBox="0 0 586 140" style="enable-background:new 0 0 586 140;" xml:space="preserve">
  <style type="text/css">
    .st0 {
      fill: #FFF;
    }

    .st1 {
      fill: #FFF;
    }

    .st2 {
      fill: #FFF;
    }
  </style>
  <g>
    <g>
      <g>
        <polygon class="st0" points="129.8,51.3 95,125.8 112.2,125.8 132.3,82.7 138.8,96.5 133.6,96.6 126.7,113.3 145.3,113.3
				151.2,125.8 168.4,125.8 135.7,51.3 			" />
      </g>
      <polygon class="st0" points="267.2,51.3 261.3,51.3 226.5,125.8 243.7,125.8 263.8,82.7 270.3,96.5 264.7,96.6 259.2,113.3
			276.8,113.3 282.7,125.9 299.9,125.9 		" />
      <g>
        <polygon class="st0" points="161.4,70.1 188.7,70.1 188.7,126.3 205.4,126.3 205.4,52.9 161.4,52.9 			" />
        <rect x="212.2" y="52.9" class="st0" width="22.6" height="17.6" />
      </g>
      <g>
        <polygon class="st0" points="415.9,51.4 381.2,125.9 398.4,125.9 418.4,82.7 424.9,96.5 419.7,96.5 412.8,113.2 431.3,113.2
				437.2,125.8 454.3,125.8 421.7,51.4 			" />
      </g>
      <polygon class="st0" points="551,51.4 545.1,51.4 510.5,125.7 527.6,125.7 547.6,82.7 554.1,96.5 548.5,96.5 543,113.2
			560.6,113.2 566.4,126.1 583.5,126.1 		" />
      <g>
        <polygon class="st0" points="445.6,70.2 472.8,70.2 472.8,126.1 489.5,126.1 489.5,53 445.6,53 			" />
        <rect x="496.2" y="53" class="st0" width="22.6" height="17.5" />
      </g>
      <path class="st0" d="M350.1,52.6c-1.8,0-3.9,0-5.8,0V69c2,0,3.9,0.1,4.5,0.1c1.4,0,21.9,2,21,21.8c-0.9,19.7-19.3,19.6-21.3,19.6
			h-11.7V52.6h-17.1v73.5h1.3h15.9c7.5,0,15.4,0,18.4,0c6.3,0,30.9-11.3,30.9-39.3S354.7,52.6,350.1,52.6z" />
    </g>
  </g>
  <g>
    <rect x="1.6" y="14.8" class="st1" width="18.2" height="18.1" />
    <rect x="1.6" y="38.4" class="st1" width="18.2" height="64.2" />
    <polygon class="st2" points="19.8,108.1 19.8,108.1 19.8,108.1 1.6,108.1 1.6,126.3 19.8,126.3 	" />
    <path class="st1" d="M43.1,14.8H25.2v18.1H45V33c24.2,0.9,32.9,19.8,32.9,37.5c0,17.7-8.7,36.6-32.9,37.5v0h-0.5
		c-0.5,0-0.9,0-1.4,0H25.2v18.2h17.9c33.9,0,53-25,53-55.7v0C96.1,39.7,77.1,14.8,43.1,14.8z" />
  </g>
</svg>
